<svg xmlns="http://www.w3.org/2000/svg" xmlns:xlink="http://www.w3.org/1999/xlink" version="1.1" id="Layer_1" x="0px" y="0px" width="395.78px" height="93.504px" viewBox="0 0 395.78 93.504" enable-background="new 0 0 395.78 93.504" xml:space="preserve" fill="#ffffff">
<g>
  <g>
    <path d="M40.529,6.101c10.938,0,19.543,3.481,25.818,10.441c6.274,6.961,9.411,15.444,9.411,25.45       c0,10.04-3.144,18.532-9.434,25.476c-6.289,6.944-14.888,10.416-25.795,10.416c-11.333,0-20.038-3.572-26.114-10.717       C8.338,60.021,5.3,51.63,5.3,41.991c0-9.972,3.122-18.447,9.365-25.425C20.909,9.589,29.53,6.101,40.529,6.101z M40.53,21.052       c-4.64,0-8.577,1.817-11.81,5.451c-3.234,3.634-4.85,8.964-4.85,15.99c0,6.208,1.595,11.174,4.785,14.899       c3.19,3.725,7.148,5.587,11.875,5.587c4.639,0,8.584-1.824,11.832-5.474c3.248-3.649,4.872-8.911,4.872-15.785       c0-6.147-1.552-11.129-4.654-14.945C49.476,22.96,45.46,21.052,40.53,21.052z"/>
    <path d="M104.942,78.866v10.23H76.589v-10.23h6.429V34.873H77.82v-10.23H97.1v5.574       c3.92-4.174,8.295-6.262,13.126-6.262c5.833,0,10.429,2.333,13.786,6.996c3.357,4.664,5.036,10.1,5.036,16.308       c0,6.576-1.732,12.019-5.195,16.331c-3.464,4.312-8.083,6.468-13.855,6.468c-4.71,0-9.471-1.675-12.898-4.675v13.483H104.942z        M117.47,47.393c0.078-3.468-1.431-6.459-3.043-8.18c-1.612-1.721-3.738-2.581-6.378-2.581c-2.671,0-4.843,0.881-6.516,2.643       c-1.674,1.762-2.01,4.377-2.01,7.873c0,3.141,0.329,5.683,1.987,7.595c1.658,1.912,3.868,2.868,6.631,2.868       c2.548,0,4.635-0.86,6.263-2.581C116.031,53.308,117.379,51.401,117.47,47.393z"/>
    <path d="M166.968,55.654l10.938,3.532c-4.588,7.248-11.758,11.697-21.511,11.697       c-7.778,0-13.847-2.889-18.207-7.018c-4.36-4.129-6.54-9.557-6.54-16.285c0-6.851,2.248-12.569,6.745-17.157       c4.496-4.587,10.223-6.881,17.181-6.881c5.044,0,9.404,1.285,13.08,3.854c3.676,2.569,6.228,5.765,7.657,9.587       c1.428,3.824,2.142,8.09,2.142,12.799l-32.859,0.601c0.212,4.037,1.481,6.296,3.805,7.978c2.325,1.682,4.778,2.523,7.36,2.523       C160.132,60.883,163.534,59.14,166.968,55.654z M164.279,41.015c-0.677-2.843-1.434-4.335-2.661-5.57       c-1.739-1.75-4.009-2.499-6.773-2.499c-4.154,0-8.173,2.105-9.024,8.069H164.279z"/>
    <path d="M211.805,58.819v11.23H180.77v-11.23h8.158V34.873h-7.657v-10.23h20.554v7.49       c2.091-3.708,4.572-5.204,5.941-6.042c3.063-1.875,5.589-2.136,9.417-2.136c0.638,0,1.397,0.016,2.278,0.046v13.395       c-3.555,0-6.456,0.398-8.705,1.193c-2.249,0.795-4.102,2.539-5.559,5.229c-1.459,2.691-2.189,5.872-2.189,9.542v5.459H211.805z"/>
    <path d="M267.86,58.819v10.23h-19.192V65.54c-3.798,2.768-7.809,4.151-12.031,4.151       c-4.376,0-8.151-1.253-11.325-3.762c-3.175-2.507-4.763-5.872-4.763-10.092c0-4.25,1.671-7.814,5.013-10.689       c3.342-2.874,7.657-4.312,12.943-4.312c2.946,0,6.334,0.75,10.163,2.248v-2.706c0-2.263-0.76-4.121-2.278-5.574       c-1.52-1.452-3.556-2.179-6.107-2.179c-3.16,0-5.864,1.163-8.113,3.486l-11.347-2.064c3.281-7.003,10.405-10.505,21.374-10.505       c4.253,0,7.777,0.482,10.573,1.445c2.795,0.963,4.876,2.209,6.244,3.739c1.367,1.529,2.331,3.204,2.893,5.023       c0.562,1.82,0.843,4.779,0.843,8.876v16.193H267.86z M247.671,52.857c-1.978-2.211-5.484-3.117-7.307-3.202       c-1.443-0.067-2.756,0.295-3.94,1.084c-1.185,0.79-1.777,1.99-1.777,3.598c0,1.445,0.476,2.707,1.429,3.787       c0.953,1.081,2.178,1.639,3.675,1.724c2.685,0.153,6.593-1.188,7.92-3.763V52.857z"/>
    <path d="M270.176,34.873v-10.23h20.828v4.129c4.253-3.211,8.082-4.328,12.457-4.328       c8.902,0,13.839,5.231,13.839,16.668v17.707h6.654v10.23h-21.736l0.001-10.236l2.614-0.001l-0.037-11.308       c-0.027-8.489-1.073-11.036-5.771-11.622c-2.594-0.323-5.992,0.679-8.021,2.89v20.047h4.803v10.23H271.17v-10.23h5.751V34.873       H270.176z"/>
    <path d="M377.55,58.819v10.23h-21.328v-5.287c-3.919,3.953-8.173,5.929-12.761,5.929       c-5.499,0-10.057-2.248-13.672-6.743c-3.616-4.496-5.423-9.939-5.423-16.331c0-6.483,1.853-11.95,5.56-16.4       c3.706-4.45,8.233-6.675,13.581-6.675c5.134,0,9.373,2.015,12.715,6.044V15.468h-6.882V5.239h20.964v53.58H377.55z        M353.548,46.754c0-3.878-0.883-6.64-2.647-8.286c-1.764-1.646-3.774-2.469-6.028-2.469c-2.699,0-4.783,0.983-6.251,2.95       c-1.468,1.967-2.202,4.555-2.202,7.763c0,3.041,0.726,5.601,2.18,7.679c1.453,2.079,3.559,3.118,6.317,3.118       c2.283,0,4.293-0.844,6.028-2.532C352.68,53.29,353.548,50.549,353.548,46.754z"/>
  </g>
  <g>
    <path d="M390.874,10.51c0,3.278-2.572,5.851-5.921,5.851c-3.313,0-5.957-2.573-5.957-5.851       c0-3.208,2.644-5.78,5.957-5.78C388.302,4.73,390.874,7.302,390.874,10.51z M380.477,10.51c0,2.573,1.903,4.618,4.512,4.618       c2.538,0,4.406-2.044,4.406-4.583c0-2.573-1.868-4.652-4.441-4.652S380.477,7.972,380.477,10.51z M384.036,13.541h-1.339v-5.78       c0.528-0.106,1.269-0.176,2.221-0.176c1.092,0,1.586,0.176,2.009,0.423c0.317,0.247,0.563,0.705,0.563,1.269       c0,0.634-0.493,1.128-1.198,1.339v0.07c0.564,0.211,0.882,0.635,1.058,1.41c0.177,0.881,0.282,1.233,0.423,1.445h-1.445       c-0.176-0.211-0.281-0.74-0.458-1.41c-0.105-0.634-0.458-0.917-1.198-0.917h-0.635V13.541z M384.071,10.263h0.635       c0.74,0,1.34-0.247,1.34-0.846c0-0.528-0.388-0.881-1.234-0.881c-0.353,0-0.599,0.035-0.74,0.07V10.263z"/>
  </g>
</g>
</svg>
